<svg id="svg" version="1.1" xmlns="http://www.w3.org/2000/svg" xmlns:xlink="http://www.w3.org/1999/xlink" width="400" height="400" viewBox="0, 0, 400,400"><g id="svgg"><path id="path0" d="M151.800 157.600 C 151.936 157.820,151.687 158.000,151.247 158.000 C 150.807 158.000,150.324 158.199,150.174 158.443 C 149.983 158.751,149.796 158.721,149.556 158.343 C 149.297 157.934,149.209 157.998,149.200 158.600 C 149.193 159.051,149.060 159.220,148.894 158.987 C 148.732 158.759,148.347 158.579,148.038 158.587 C 147.329 158.604,147.083 160.078,147.722 160.484 C 148.026 160.677,147.888 160.790,147.344 160.794 C 146.479 160.800,146.215 161.920,146.953 162.456 C 147.147 162.597,146.922 162.834,146.453 162.983 C 145.984 163.132,145.600 163.422,145.600 163.627 C 145.600 163.832,145.375 163.955,145.100 163.900 C 144.825 163.845,144.654 164.051,144.720 164.359 C 144.810 164.783,144.569 164.744,143.720 164.197 L 142.600 163.476 143.400 164.422 L 144.200 165.369 143.051 164.643 C 142.419 164.244,142.014 164.099,142.152 164.322 C 142.546 164.960,141.956 166.069,141.347 165.835 C 140.950 165.683,140.993 165.923,141.499 166.697 C 141.884 167.286,141.987 167.638,141.728 167.478 C 141.468 167.318,141.150 167.357,141.021 167.566 C 140.892 167.774,140.976 168.062,141.207 168.204 C 141.456 168.358,141.185 168.812,140.542 169.317 C 139.798 169.902,139.406 170.018,139.295 169.685 C 139.206 169.418,138.962 169.200,138.753 169.200 C 138.516 169.200,138.520 169.477,138.764 169.933 C 139.043 170.454,139.018 170.672,138.678 170.686 C 138.415 170.696,137.840 170.829,137.400 170.980 C 136.819 171.180,136.859 171.100,137.547 170.688 C 138.361 170.201,138.400 170.086,137.826 169.865 C 137.380 169.694,137.253 169.763,137.445 170.073 C 137.633 170.378,137.514 170.453,137.095 170.292 C 136.745 170.157,136.235 170.317,135.962 170.646 C 135.559 171.132,135.572 171.222,136.032 171.123 C 136.345 171.055,136.600 171.270,136.600 171.600 C 136.600 171.930,136.396 172.162,136.147 172.116 C 135.898 172.069,135.718 172.339,135.747 172.716 C 135.778 173.114,135.563 173.349,135.232 173.277 C 134.763 173.176,134.754 173.263,135.181 173.777 C 135.659 174.353,135.484 174.579,134.670 174.437 C 134.488 174.406,134.451 174.729,134.586 175.156 C 134.722 175.583,134.626 176.060,134.374 176.216 C 134.041 176.422,134.064 176.595,134.457 176.844 C 134.890 177.118,134.893 177.189,134.476 177.194 C 134.188 177.197,134.063 177.378,134.197 177.595 C 134.342 177.830,134.163 177.884,133.755 177.727 C 133.342 177.569,133.167 177.624,133.317 177.865 C 133.453 178.086,133.275 178.267,132.921 178.267 C 132.425 178.267,132.485 178.099,133.183 177.533 C 134.332 176.603,133.705 176.571,132.389 177.493 C 131.845 177.874,131.340 178.129,131.267 178.059 C 131.193 177.990,131.013 178.067,130.867 178.231 C 130.720 178.394,130.813 178.406,131.073 178.257 C 131.397 178.072,131.511 178.321,131.434 179.043 C 131.372 179.624,130.999 180.280,130.606 180.501 C 130.043 180.816,129.959 180.784,130.214 180.351 C 130.393 180.047,130.179 180.114,129.736 180.501 C 129.296 180.886,128.805 181.072,128.646 180.913 C 128.488 180.754,128.472 180.922,128.611 181.285 C 128.792 181.755,128.510 182.130,127.636 182.581 C 126.960 182.931,126.103 183.682,125.730 184.251 C 125.092 185.224,125.021 185.243,124.526 184.566 C 123.927 183.748,123.813 184.285,124.391 185.200 C 124.670 185.640,124.505 186.028,123.771 186.658 C 123.222 187.131,122.824 187.685,122.886 187.891 C 122.989 188.229,122.540 188.810,120.300 191.241 C 119.915 191.658,119.735 192.006,119.900 192.012 C 120.065 192.019,119.529 192.438,118.709 192.942 C 117.506 193.681,117.313 193.961,117.709 194.388 C 118.100 194.810,118.091 194.856,117.665 194.614 C 117.255 194.380,117.162 194.623,117.265 195.655 C 117.397 196.974,117.367 197.002,115.721 197.122 C 114.340 197.222,114.085 197.364,114.285 197.922 C 114.418 198.295,114.382 198.468,114.203 198.306 C 114.025 198.145,113.636 198.325,113.339 198.706 C 112.838 199.349,112.815 199.341,113.032 198.600 C 113.249 197.854,113.227 197.847,112.693 198.494 C 112.378 198.875,112.009 199.076,111.873 198.939 C 111.736 198.803,111.786 199.253,111.983 199.940 C 112.202 200.704,112.195 201.280,111.964 201.422 C 111.757 201.550,111.668 201.786,111.767 201.947 C 112.149 202.565,111.239 203.294,109.949 203.400 C 109.207 203.462,108.510 203.553,108.400 203.604 C 108.290 203.654,108.065 203.673,107.900 203.647 C 107.735 203.621,107.600 203.791,107.600 204.024 C 107.600 204.257,107.416 204.333,107.190 204.194 C 106.965 204.055,106.830 204.179,106.890 204.470 C 106.951 204.762,106.805 204.965,106.566 204.922 C 106.315 204.877,106.164 205.384,106.209 206.122 C 106.313 207.846,105.650 209.682,105.061 209.302 C 104.143 208.711,102.787 208.902,103.319 209.547 C 103.731 210.047,103.676 210.065,102.940 209.673 C 102.250 209.305,102.035 209.332,101.853 209.807 C 101.727 210.133,101.810 210.400,102.036 210.400 C 102.262 210.400,102.341 210.572,102.211 210.783 C 102.081 210.993,101.681 211.052,101.322 210.915 C 100.951 210.772,100.771 210.830,100.906 211.048 C 101.434 211.903,99.096 215.430,98.319 214.950 C 97.981 214.741,94.769 217.855,94.864 218.300 C 94.898 218.465,94.788 218.918,94.618 219.306 C 94.449 219.694,94.404 220.371,94.518 220.809 C 94.656 221.335,94.433 221.812,93.863 222.211 C 93.389 222.543,93.000 223.217,93.000 223.708 C 93.000 224.321,92.760 224.600,92.231 224.600 C 91.354 224.600,88.950 226.794,89.162 227.400 C 89.239 227.620,89.277 227.980,89.248 228.200 C 89.218 228.420,89.110 229.673,89.007 230.984 C 88.787 233.801,88.553 234.542,87.993 234.196 C 87.766 234.055,87.625 234.089,87.680 234.270 C 87.735 234.452,87.260 235.140,86.625 235.800 C 85.466 237.004,85.563 236.463,86.761 235.042 C 87.366 234.323,87.354 234.308,86.527 234.741 C 86.047 234.993,85.532 235.583,85.383 236.052 C 85.171 236.723,85.037 236.787,84.762 236.353 C 84.485 235.914,84.411 235.945,84.406 236.500 C 84.403 236.885,84.563 237.200,84.762 237.200 C 84.962 237.200,84.917 237.649,84.662 238.197 C 84.408 238.745,84.054 239.195,83.876 239.197 C 83.698 239.199,83.666 239.383,83.804 239.607 C 83.942 239.830,84.268 239.886,84.528 239.730 C 84.858 239.532,84.851 239.631,84.503 240.060 C 84.230 240.397,84.140 240.821,84.303 241.001 C 84.467 241.181,84.395 241.211,84.145 241.069 C 83.590 240.752,83.078 242.438,83.577 242.937 C 83.778 243.138,83.730 243.824,83.464 244.544 C 82.818 246.292,82.840 268.901,83.489 270.700 C 83.747 271.415,83.815 272.000,83.641 272.000 C 83.172 272.000,83.414 274.625,83.941 275.257 C 86.295 278.078,86.978 278.737,87.323 278.524 C 87.550 278.383,87.599 278.477,87.436 278.742 C 87.270 279.010,87.456 279.332,87.874 279.503 C 88.735 279.855,88.867 280.321,88.897 283.100 C 88.909 284.255,89.083 285.200,89.283 285.200 C 89.483 285.200,89.510 285.422,89.343 285.693 C 88.904 286.402,88.872 287.600,89.290 287.600 C 89.487 287.600,89.558 287.744,89.450 287.919 C 89.342 288.095,89.418 288.500,89.620 288.819 C 89.916 289.286,89.992 289.243,90.007 288.600 C 90.025 287.852,90.079 287.863,90.831 288.766 C 91.273 289.297,91.545 289.967,91.434 290.255 C 91.147 291.004,92.855 292.154,93.274 291.494 C 93.487 291.159,93.592 291.258,93.600 291.800 C 93.609 292.392,93.700 292.461,93.950 292.066 C 94.455 291.270,94.729 292.244,94.531 294.133 C 94.429 295.113,94.519 295.574,94.781 295.412 C 95.018 295.265,95.097 295.403,94.968 295.739 C 94.846 296.058,94.957 296.450,95.215 296.610 C 95.564 296.825,95.546 296.988,95.143 297.244 C 94.728 297.507,94.776 297.589,95.349 297.594 C 95.969 297.599,96.012 297.703,95.600 298.200 C 95.089 298.816,95.277 298.945,96.500 298.821 C 96.885 298.782,97.200 298.910,97.200 299.107 C 97.200 299.303,97.830 299.443,98.600 299.418 C 99.370 299.392,100.000 299.523,100.000 299.709 C 100.000 299.895,100.168 299.944,100.372 299.817 C 100.577 299.691,100.858 299.770,100.996 299.993 C 101.134 300.217,101.029 300.400,100.762 300.400 C 100.466 300.400,100.574 300.739,101.038 301.269 C 101.457 301.747,101.575 302.006,101.301 301.846 C 100.640 301.459,100.809 303.198,101.504 303.932 C 101.781 304.225,101.897 304.643,101.762 304.862 C 101.627 305.080,101.877 305.033,102.319 304.758 C 102.982 304.343,103.298 304.372,104.140 304.924 C 104.753 305.326,105.255 305.435,105.400 305.200 C 105.550 304.957,105.846 304.996,106.179 305.304 C 106.474 305.577,106.622 305.955,106.507 306.145 C 106.392 306.334,106.534 306.636,106.823 306.814 C 107.252 307.080,107.243 307.268,106.774 307.846 C 106.353 308.365,106.341 308.469,106.731 308.234 C 107.332 307.872,108.926 309.322,108.476 309.821 C 108.324 309.990,108.540 310.005,108.957 309.855 C 109.598 309.623,109.636 309.674,109.208 310.191 C 108.625 310.893,109.214 311.026,109.894 310.346 C 110.233 310.007,110.522 310.065,111.032 310.575 C 111.582 311.125,111.782 311.155,112.052 310.730 C 112.298 310.341,112.391 310.413,112.400 311.000 C 112.410 311.666,112.478 311.699,112.806 311.200 C 113.118 310.725,113.269 310.706,113.531 311.112 C 113.741 311.437,114.399 311.558,115.327 311.443 C 116.132 311.343,116.895 311.431,117.023 311.637 C 117.151 311.844,117.383 311.934,117.539 311.837 C 117.696 311.741,118.016 312.278,118.252 313.031 C 118.488 313.784,118.521 314.400,118.326 314.400 C 118.131 314.400,118.165 314.760,118.400 315.200 C 118.635 315.640,119.092 316.000,119.414 316.000 C 119.736 316.000,120.000 316.202,120.000 316.449 C 120.000 316.772,120.159 316.766,120.564 316.430 C 120.977 316.087,121.203 316.082,121.405 316.408 C 121.557 316.654,121.921 316.762,122.215 316.650 C 122.508 316.537,122.836 316.660,122.944 316.922 C 123.083 317.264,123.262 317.229,123.570 316.800 C 123.903 316.336,124.073 316.313,124.322 316.697 C 124.535 317.026,125.585 317.173,127.422 317.131 C 134.047 316.978,137.182 317.180,136.965 317.746 C 136.645 318.582,139.112 320.475,140.146 320.186 C 140.851 319.989,140.895 320.028,140.400 320.407 C 139.925 320.771,140.093 320.820,141.200 320.643 C 142.585 320.420,142.589 320.424,141.600 320.995 C 140.435 321.667,141.174 321.781,143.103 321.228 C 144.134 320.932,144.400 320.973,144.400 321.428 C 144.400 321.871,145.007 321.991,147.100 321.960 C 149.014 321.932,149.509 321.830,148.800 321.611 C 148.172 321.417,149.045 321.320,151.148 321.351 C 154.287 321.397,154.537 321.338,155.148 320.417 C 155.692 319.597,155.701 319.486,155.200 319.747 C 154.870 319.919,154.960 319.768,155.400 319.412 C 155.840 319.057,156.148 318.679,156.085 318.574 C 155.448 317.516,156.868 317.216,162.811 317.157 C 166.452 317.121,169.218 316.921,169.530 316.673 C 169.910 316.371,170.150 316.396,170.375 316.759 C 170.616 317.149,170.746 317.119,170.933 316.630 C 171.193 315.952,172.006 315.937,172.494 316.600 C 172.656 316.820,172.791 316.606,172.794 316.124 C 172.797 315.642,172.978 315.137,173.195 315.003 C 173.423 314.862,173.489 315.024,173.351 315.384 C 173.177 315.837,173.287 315.941,173.753 315.763 C 174.106 315.627,174.311 315.379,174.207 315.212 C 173.978 314.840,177.211 311.477,177.510 311.777 C 177.627 311.894,177.052 312.622,176.233 313.395 C 175.414 314.168,174.927 314.800,175.152 314.800 C 175.376 314.800,176.224 314.005,177.036 313.034 C 177.964 311.925,178.729 311.352,179.097 311.492 C 179.418 311.616,179.840 311.465,180.034 311.158 C 180.287 310.759,180.389 310.743,180.394 311.100 C 180.397 311.375,180.591 311.600,180.824 311.600 C 181.057 311.600,181.149 311.441,181.029 311.246 C 180.760 310.811,183.006 309.833,183.531 310.157 C 184.035 310.469,184.939 309.348,184.611 308.818 C 184.469 308.588,184.554 308.400,184.800 308.400 C 185.046 308.400,185.131 308.212,184.989 307.982 C 184.847 307.753,184.933 307.322,185.180 307.025 C 185.426 306.727,185.577 306.240,185.514 305.942 C 185.443 305.605,185.686 305.449,186.157 305.531 C 186.574 305.603,187.033 305.470,187.177 305.237 C 187.322 305.003,188.083 304.764,188.868 304.706 C 189.842 304.634,190.234 304.436,190.099 304.084 C 189.991 303.800,190.059 303.596,190.251 303.631 C 191.152 303.795,191.284 303.548,190.576 303.020 C 189.835 302.466,189.845 302.448,190.800 302.624 C 191.350 302.726,191.575 302.702,191.300 302.571 C 191.025 302.440,190.800 302.068,190.800 301.743 C 190.800 301.418,190.980 301.264,191.200 301.400 C 191.428 301.541,191.600 301.190,191.600 300.580 C 191.600 299.652,191.725 299.545,192.567 299.756 C 193.165 299.906,193.611 299.808,193.736 299.499 C 193.889 299.124,194.045 299.149,194.363 299.600 C 194.745 300.139,194.974 299.902,194.847 299.100 C 194.821 298.935,194.980 298.800,195.200 298.800 C 195.420 298.800,195.600 298.987,195.600 299.216 C 195.600 299.456,195.837 299.414,196.161 299.116 C 196.469 298.832,196.559 298.540,196.361 298.467 C 195.728 298.233,195.974 297.600,196.700 297.594 C 197.095 297.590,197.226 297.460,197.000 297.294 C 196.424 296.871,196.279 295.878,196.844 296.227 C 197.169 296.428,197.254 296.151,197.129 295.298 C 196.993 294.371,197.084 294.134,197.516 294.300 C 197.826 294.419,198.256 294.265,198.471 293.958 C 198.754 293.552,198.914 293.530,199.055 293.875 C 199.193 294.212,199.479 294.153,200.038 293.675 C 200.471 293.304,201.045 292.996,201.313 292.991 C 201.581 292.986,201.747 292.669,201.681 292.286 C 201.616 291.903,201.809 291.495,202.110 291.379 C 202.456 291.246,202.596 290.751,202.490 290.032 C 202.333 288.965,202.771 288.337,203.800 288.150 C 204.020 288.110,204.560 287.953,205.000 287.801 C 205.597 287.595,205.658 287.626,205.239 287.924 C 204.810 288.228,204.920 288.308,205.700 288.262 C 206.263 288.228,206.640 288.065,206.538 287.900 C 206.436 287.735,206.633 287.600,206.976 287.600 C 207.319 287.600,207.600 287.319,207.600 286.976 C 207.600 286.633,207.735 286.436,207.900 286.538 C 208.065 286.640,208.228 286.263,208.262 285.700 C 208.308 284.920,208.228 284.810,207.924 285.239 C 207.626 285.658,207.595 285.597,207.801 285.000 C 207.953 284.560,208.110 284.010,208.151 283.778 C 208.191 283.545,208.650 282.915,209.171 282.378 C 209.692 281.840,209.991 281.625,209.835 281.900 C 209.660 282.210,209.798 282.400,210.200 282.400 C 210.556 282.400,210.737 282.222,210.603 282.005 C 210.463 281.778,210.623 281.711,210.979 281.847 C 211.321 281.978,211.600 281.892,211.600 281.655 C 211.600 281.419,211.852 281.322,212.160 281.440 C 212.467 281.558,212.855 281.434,213.021 281.165 C 213.215 280.853,213.157 280.779,212.862 280.962 C 212.608 281.119,212.400 281.057,212.400 280.824 C 212.400 280.591,212.651 280.400,212.957 280.400 C 213.264 280.400,213.622 280.121,213.753 279.779 C 213.889 279.423,213.822 279.263,213.595 279.403 C 212.963 279.794,213.139 278.948,213.805 278.396 C 214.138 278.119,214.363 277.687,214.305 277.435 C 214.247 277.183,214.380 276.926,214.600 276.864 C 214.820 276.802,215.418 276.359,215.930 275.878 C 216.815 275.046,216.879 275.040,217.268 275.736 C 217.658 276.433,217.705 276.428,218.262 275.633 C 218.583 275.174,218.718 274.591,218.561 274.337 C 218.391 274.063,218.452 273.985,218.711 274.145 C 218.949 274.292,219.250 274.243,219.379 274.034 C 219.508 273.826,219.432 273.543,219.211 273.407 C 218.959 273.251,219.043 272.802,219.437 272.200 C 219.782 271.673,220.049 271.101,220.030 270.930 C 220.011 270.758,220.672 270.585,221.498 270.545 C 222.324 270.506,223.157 270.457,223.349 270.437 C 223.541 270.417,223.451 270.101,223.149 269.735 C 222.650 269.129,222.684 269.114,223.530 269.565 C 224.423 270.040,224.440 270.023,223.965 269.130 C 223.538 268.330,223.550 268.267,224.049 268.678 C 224.520 269.066,224.629 269.010,224.629 268.378 C 224.629 267.950,224.442 267.597,224.214 267.594 C 223.986 267.591,224.065 267.420,224.388 267.216 C 224.712 267.011,224.856 266.722,224.707 266.574 C 224.353 266.220,225.566 265.020,226.370 264.928 C 229.281 264.597,231.296 262.558,230.573 260.674 C 230.452 260.358,230.650 259.990,231.019 259.848 C 231.403 259.701,231.587 259.342,231.454 258.997 C 231.328 258.668,231.410 258.400,231.636 258.400 C 231.862 258.400,231.936 258.220,231.800 258.000 C 231.478 257.479,231.853 257.493,232.873 258.039 C 233.518 258.384,233.812 258.342,234.248 257.840 C 234.553 257.490,234.586 257.382,234.321 257.601 C 233.314 258.435,233.103 257.953,234.030 256.935 C 234.564 256.350,234.790 255.991,234.534 256.138 C 234.278 256.285,234.001 256.204,233.920 255.959 C 233.826 255.677,233.574 255.750,233.236 256.156 C 232.854 256.616,232.837 256.800,233.175 256.800 C 233.435 256.800,233.536 256.980,233.400 257.200 C 233.033 257.793,232.458 257.685,232.553 257.040 C 232.671 256.238,233.632 255.172,234.021 255.413 C 234.202 255.525,234.514 255.325,234.714 254.968 C 234.914 254.611,236.230 253.657,237.639 252.849 C 239.570 251.741,240.389 250.988,240.969 249.789 C 241.392 248.915,241.998 248.044,242.317 247.853 C 242.803 247.562,242.808 247.451,242.348 247.159 C 241.949 246.906,241.936 246.811,242.300 246.806 C 242.575 246.803,242.800 246.649,242.800 246.465 C 242.800 246.281,243.700 245.207,244.800 244.077 C 245.900 242.948,246.800 241.738,246.800 241.388 C 246.800 241.039,246.978 240.863,247.195 240.997 C 247.422 241.137,247.489 240.977,247.353 240.621 C 247.222 240.279,247.298 240.000,247.522 240.000 C 247.967 240.000,247.948 239.272,247.482 238.528 C 247.320 238.268,247.355 237.952,247.559 237.825 C 247.764 237.699,248.023 237.821,248.134 238.098 C 248.292 238.489,248.344 238.485,248.368 238.079 C 248.399 237.578,246.286 236.588,245.776 236.865 C 245.639 236.939,245.265 236.500,244.945 235.888 C 244.624 235.277,244.210 234.870,244.024 234.985 C 243.838 235.100,243.562 234.701,243.412 234.097 C 243.046 232.633,242.065 231.600,241.038 231.599 C 239.780 231.596,237.600 230.116,237.600 229.264 C 237.600 228.229,235.281 225.936,233.984 225.689 C 232.847 225.472,231.600 224.658,231.600 224.132 C 231.600 223.840,231.420 223.600,231.200 223.600 C 230.980 223.600,230.800 223.407,230.800 223.171 C 230.800 222.707,229.619 221.400,229.200 221.400 C 229.059 221.400,228.628 221.085,228.243 220.700 C 227.858 220.315,227.301 220.000,227.005 220.000 C 226.710 220.000,225.958 219.440,225.334 218.756 C 223.585 216.837,221.935 215.349,220.400 214.307 C 219.630 213.784,218.190 212.604,217.200 211.683 C 216.210 210.763,215.265 210.008,215.100 210.005 C 214.935 210.002,214.800 209.749,214.800 209.443 C 214.800 208.907,213.721 208.205,213.100 208.336 C 212.935 208.371,212.800 208.220,212.800 208.000 C 212.800 207.780,212.575 207.592,212.300 207.583 C 211.852 207.568,208.885 204.076,208.682 203.325 C 208.637 203.158,207.778 202.613,206.774 202.112 C 205.163 201.309,203.623 199.478,203.148 197.800 C 203.086 197.580,202.443 197.197,201.721 196.948 C 199.562 196.206,198.560 195.352,197.700 193.523 C 196.992 192.018,196.640 191.723,195.036 191.294 C 192.997 190.749,191.604 189.067,191.601 187.147 C 191.600 186.077,190.841 185.626,189.000 185.600 C 187.907 185.584,186.211 184.685,186.150 184.088 C 186.123 183.820,186.078 183.364,186.050 183.075 C 186.023 182.787,185.651 182.176,185.224 181.718 C 184.797 181.260,184.572 180.761,184.724 180.609 C 184.876 180.457,184.820 180.377,184.600 180.430 C 184.380 180.483,183.930 180.423,183.600 180.297 C 183.270 180.170,182.499 179.957,181.886 179.822 C 181.194 179.670,180.592 179.166,180.295 178.489 C 179.725 177.192,177.268 174.800,176.504 174.800 C 176.208 174.800,175.010 173.837,173.843 172.661 C 172.676 171.484,170.839 169.916,169.760 169.177 C 168.682 168.437,166.616 166.655,165.170 165.216 C 162.258 162.320,161.404 161.600,160.883 161.600 C 160.476 161.600,158.798 159.779,157.797 158.252 C 157.139 157.247,153.142 156.536,153.759 157.533 C 153.872 157.717,153.711 157.867,153.400 157.867 C 153.089 157.867,152.928 157.717,153.041 157.533 C 153.155 157.350,152.866 157.200,152.400 157.200 C 151.934 157.200,151.664 157.380,151.800 157.600 M126.931 181.464 C 127.076 181.609,126.837 181.979,126.401 182.285 C 125.964 182.591,125.395 183.235,125.137 183.717 C 124.808 184.333,125.054 184.208,125.965 183.296 C 126.678 182.583,127.563 181.997,127.931 181.994 C 128.509 181.989,128.518 181.935,128.000 181.600 C 127.322 181.162,126.527 181.061,126.931 181.464 M90.908 223.749 C 90.781 223.955,90.884 223.995,91.138 223.838 C 91.392 223.681,91.600 223.713,91.600 223.910 C 91.600 224.106,91.840 224.267,92.133 224.267 C 92.427 224.267,92.667 224.040,92.667 223.763 C 92.667 223.191,91.260 223.180,90.908 223.749 M147.547 288.614 C 147.650 288.716,145.768 288.787,143.367 288.772 C 140.965 288.756,139.316 288.619,139.702 288.466 C 140.448 288.171,147.232 288.299,147.547 288.614 " stroke="none" fill="#94c444" fill-rule="evenodd"></path><path id="path1" d="M238.257 72.109 C 237.799 72.444,237.480 73.401,237.325 74.909 L 237.088 77.200 231.844 77.213 C 227.868 77.222,226.412 77.367,225.824 77.813 C 225.396 78.136,224.741 78.400,224.368 78.400 C 223.310 78.400,221.884 79.763,221.387 81.249 C 220.948 82.561,220.850 82.612,218.008 83.001 C 214.701 83.453,214.475 83.699,214.428 86.900 L 214.400 88.800 212.080 88.800 C 209.186 88.800,208.800 89.186,208.800 92.080 L 208.800 94.400 206.774 94.400 C 203.787 94.400,203.327 94.784,203.006 97.545 L 202.733 99.904 200.378 100.171 C 197.626 100.482,197.585 100.528,197.304 103.627 L 197.089 106.000 195.221 106.000 C 192.584 106.000,191.913 106.626,191.692 109.295 L 191.508 111.509 189.625 111.759 C 187.014 112.105,186.463 112.640,186.103 115.183 C 185.802 117.311,185.756 117.373,184.273 117.681 C 181.376 118.283,181.230 118.472,180.232 122.900 C 180.079 123.580,179.720 124.001,179.292 124.001 C 177.843 124.005,176.054 125.528,175.558 127.181 C 175.292 128.071,174.922 128.800,174.737 128.800 C 174.552 128.800,174.400 130.052,174.400 131.582 L 174.400 134.363 171.700 134.482 L 169.000 134.600 168.882 137.300 L 168.763 140.000 166.482 140.006 C 163.406 140.014,163.088 140.289,162.883 143.122 L 162.711 145.507 160.260 145.784 C 157.162 146.135,157.213 146.029,157.206 152.072 L 157.200 157.143 159.429 157.791 C 161.720 158.457,162.800 159.788,162.800 161.944 C 162.800 162.811,163.538 163.200,165.179 163.200 C 166.625 163.200,168.400 164.610,168.400 165.759 C 168.400 167.012,170.094 168.476,171.879 168.766 C 173.075 168.961,173.611 169.359,174.544 170.748 C 175.186 171.705,176.541 172.962,177.555 173.543 C 178.569 174.125,180.312 175.500,181.428 176.600 C 184.172 179.303,186.361 181.200,186.737 181.200 C 186.908 181.200,188.117 182.367,189.424 183.792 C 190.731 185.218,191.954 186.388,192.142 186.392 C 192.853 186.408,195.472 188.795,196.180 190.072 C 196.651 190.922,197.650 191.763,198.958 192.410 C 200.581 193.212,201.208 193.822,202.011 195.379 C 202.874 197.052,203.297 197.430,204.904 197.969 C 206.954 198.656,207.746 199.509,208.292 201.615 C 208.600 202.803,208.860 203.026,210.260 203.303 C 212.350 203.716,213.503 204.827,214.079 206.981 C 214.529 208.663,214.602 208.724,216.451 208.969 C 218.335 209.219,220.000 210.545,220.000 211.796 C 220.000 212.737,221.928 214.350,223.379 214.623 C 224.335 214.802,225.080 215.264,225.520 215.949 C 226.549 217.555,227.238 218.207,229.229 219.460 C 230.235 220.093,231.669 221.306,232.416 222.157 C 233.162 223.007,234.769 224.433,235.986 225.327 C 237.204 226.220,238.435 227.277,238.723 227.675 C 239.010 228.074,239.460 228.401,239.723 228.401 C 239.985 228.402,240.560 228.957,241.000 229.636 C 241.440 230.315,242.790 231.569,244.000 232.423 C 247.071 234.593,247.344 234.852,247.918 236.147 C 248.410 237.258,248.501 237.289,250.819 237.121 C 253.760 236.908,254.084 236.602,254.315 233.814 L 254.499 231.600 256.621 231.600 C 259.454 231.600,260.000 231.014,260.000 227.971 L 260.000 225.600 262.320 225.600 C 265.206 225.600,265.600 225.211,265.600 222.368 L 265.600 220.096 268.054 219.919 C 270.986 219.707,271.600 219.094,271.600 216.380 L 271.600 214.512 273.857 214.279 C 276.667 213.989,276.738 213.914,277.054 210.882 L 277.314 208.400 279.408 208.400 C 281.978 208.400,282.477 207.889,282.715 205.016 L 282.892 202.881 285.018 202.615 C 287.613 202.291,288.087 201.768,288.319 198.976 L 288.499 196.800 289.950 196.794 C 292.888 196.782,293.406 196.168,294.246 191.700 C 294.381 190.980,294.682 190.800,295.754 190.800 C 297.750 190.800,299.101 189.534,299.427 187.358 C 299.728 185.355,299.949 185.073,302.000 184.079 C 303.996 183.111,305.600 179.831,305.600 176.717 L 305.600 174.400 307.800 174.400 C 310.776 174.400,311.600 173.586,311.600 170.645 L 311.600 168.491 313.346 168.229 C 316.692 167.727,317.177 166.255,317.192 156.551 L 317.200 151.302 319.224 151.107 C 322.674 150.776,322.760 150.406,322.780 135.800 C 322.800 120.541,322.320 118.395,318.756 117.793 L 317.200 117.530 317.200 113.015 C 317.200 106.975,317.004 106.108,315.565 105.792 C 313.209 105.275,311.600 103.031,311.598 100.260 C 311.593 95.301,310.945 94.417,307.300 94.405 L 305.600 94.400 305.600 92.080 C 305.600 89.196,305.211 88.800,302.376 88.800 L 300.111 88.800 299.896 86.427 C 299.612 83.299,299.639 83.325,296.402 83.000 L 293.600 82.719 293.600 81.404 C 293.600 78.326,290.619 77.216,282.325 77.206 L 277.249 77.200 276.991 75.300 C 276.604 72.455,276.453 72.108,275.487 71.849 C 273.570 71.335,238.985 71.577,238.257 72.109 M145.600 162.256 C 145.600 162.470,145.105 162.854,144.500 163.108 C 143.499 163.528,143.490 163.549,144.400 163.340 C 145.585 163.068,146.255 162.522,145.873 162.140 C 145.723 161.990,145.600 162.042,145.600 162.256 M132.600 174.800 C 132.464 175.020,132.713 175.200,133.153 175.200 C 133.593 175.200,134.064 175.020,134.200 174.800 C 134.336 174.580,134.087 174.400,133.647 174.400 C 133.207 174.400,132.736 174.580,132.600 174.800 M130.582 176.182 C 130.042 176.722,129.605 177.397,129.612 177.682 C 129.619 177.967,129.822 177.840,130.064 177.400 C 130.306 176.960,130.886 176.289,131.352 175.909 C 131.818 175.529,132.057 175.214,131.882 175.209 C 131.707 175.204,131.122 175.642,130.582 176.182 M88.812 223.600 C 88.812 223.930,88.987 224.470,89.200 224.800 C 89.545 225.333,89.588 225.333,89.588 224.800 C 89.588 224.470,89.413 223.930,89.200 223.600 C 88.855 223.067,88.812 223.067,88.812 223.600 M87.065 232.489 C 85.429 232.923,83.973 234.707,84.038 236.200 C 84.060 236.714,84.204 236.545,84.441 235.725 C 84.848 234.319,86.504 232.800,87.630 232.800 C 88.028 232.800,88.464 232.620,88.600 232.400 C 88.736 232.180,88.792 232.019,88.724 232.041 C 88.656 232.064,87.909 232.266,87.065 232.489 M84.229 233.029 C 83.883 233.374,83.600 233.854,83.600 234.095 C 83.600 234.336,83.647 234.458,83.704 234.367 C 83.762 234.275,84.150 233.795,84.566 233.300 C 85.428 232.276,85.180 232.077,84.229 233.029 M235.843 257.433 C 235.513 258.293,235.533 258.400,236.024 258.400 C 236.257 258.400,236.336 258.220,236.200 258.000 C 236.064 257.780,236.143 257.600,236.376 257.600 C 236.609 257.600,236.800 257.420,236.800 257.200 C 236.800 256.567,236.111 256.735,235.843 257.433 M234.412 258.784 C 234.088 258.989,233.978 259.301,234.166 259.478 C 234.355 259.655,234.590 259.574,234.689 259.298 C 234.788 259.021,235.061 258.914,235.296 259.059 C 235.549 259.216,235.607 259.135,235.438 258.862 C 235.099 258.314,235.150 258.317,234.412 258.784 M85.301 280.632 C 85.686 281.090,85.872 281.595,85.713 281.754 C 85.554 281.912,85.742 281.921,86.129 281.772 C 86.517 281.623,86.782 281.476,86.717 281.446 C 86.653 281.416,86.150 281.033,85.600 280.596 L 84.600 279.800 85.301 280.632 M141.511 288.693 C 142.451 288.778,143.891 288.777,144.711 288.691 C 145.530 288.605,144.760 288.536,143.000 288.537 C 141.240 288.539,140.570 288.609,141.511 288.693 M89.600 291.185 C 89.600 291.558,92.360 294.178,92.536 293.973 C 92.617 293.878,91.990 293.154,91.142 292.364 C 90.294 291.574,89.600 291.044,89.600 291.185 M176.453 315.353 C 175.609 315.821,175.583 315.908,176.210 316.149 C 176.598 316.297,177.009 316.325,177.124 316.209 C 177.239 316.094,177.089 316.000,176.790 316.000 C 176.439 316.000,176.521 315.793,177.024 315.413 C 177.986 314.685,177.711 314.656,176.453 315.353 M134.412 317.600 C 134.412 317.930,134.587 318.470,134.800 318.800 C 135.145 319.333,135.188 319.333,135.188 318.800 C 135.188 318.470,135.013 317.930,134.800 317.600 C 134.455 317.067,134.412 317.067,134.412 317.600 M135.065 320.174 C 134.894 320.620,134.963 320.747,135.273 320.555 C 135.580 320.365,135.652 320.488,135.485 320.922 C 135.348 321.281,135.395 321.673,135.590 321.794 C 136.214 322.179,136.346 321.421,135.826 320.448 C 135.394 319.642,135.285 319.602,135.065 320.174 M138.800 322.379 C 139.130 322.604,139.925 322.791,140.567 322.794 C 142.104 322.802,141.784 322.570,139.800 322.238 C 138.654 322.046,138.370 322.086,138.800 322.379 M145.312 322.695 C 146.364 322.777,147.984 322.776,148.912 322.692 C 149.840 322.608,148.980 322.541,147.000 322.542 C 145.020 322.543,144.260 322.612,145.312 322.695 " stroke="none" fill="#040404" fill-rule="evenodd"></path><path id="path2" d="M149.600 157.600 C 151.045 158.063,152.086 158.063,151.800 157.600 C 151.664 157.380,150.888 157.218,150.076 157.240 C 148.750 157.276,148.702 157.312,149.600 157.600 M146.600 158.000 C 146.464 158.220,146.538 158.400,146.764 158.400 C 146.990 158.400,147.065 158.685,146.932 159.034 C 146.734 159.549,146.617 159.567,146.307 159.134 C 146.026 158.741,145.988 158.794,146.162 159.333 C 146.293 159.736,146.400 160.231,146.400 160.433 C 146.400 160.635,146.805 160.795,147.300 160.788 C 148.090 160.777,148.116 160.727,147.517 160.377 C 147.141 160.158,146.935 159.715,147.059 159.392 C 147.182 159.069,147.490 158.928,147.742 159.079 C 147.994 159.230,147.953 159.049,147.651 158.677 C 147.179 158.095,147.191 158.000,147.731 158.000 C 148.077 158.000,148.544 158.315,148.768 158.700 C 149.130 159.321,149.177 159.326,149.188 158.743 C 149.206 157.743,147.128 157.146,146.600 158.000 M158.019 158.597 C 159.283 160.332,160.777 161.756,161.048 161.486 C 161.205 161.328,161.256 161.155,161.161 161.100 C 161.065 161.045,160.189 160.280,159.213 159.400 C 158.237 158.520,157.699 158.159,158.019 158.597 M146.000 162.400 C 145.538 163.264,145.844 163.418,146.800 162.800 C 147.236 162.518,147.257 162.411,146.876 162.406 C 146.588 162.403,146.464 162.220,146.600 162.000 C 146.736 161.780,146.753 161.600,146.638 161.600 C 146.522 161.600,146.235 161.960,146.000 162.400 M142.778 163.641 C 143.317 163.856,144.002 164.235,144.301 164.484 C 144.719 164.831,144.817 164.804,144.723 164.368 C 144.579 163.704,143.729 163.257,142.600 163.253 C 141.923 163.251,141.951 163.311,142.778 163.641 M164.600 164.380 C 166.623 166.705,168.029 168.105,168.185 167.948 C 168.371 167.763,166.571 165.792,164.763 164.200 L 163.400 163.000 164.600 164.380 M140.819 164.177 C 140.159 164.972,140.591 167.467,141.389 167.467 C 141.871 167.467,141.856 167.280,141.299 166.337 C 140.747 165.403,140.724 165.121,141.161 164.704 C 141.594 164.291,141.641 164.362,141.418 165.100 C 141.263 165.615,141.317 166.000,141.546 166.000 C 141.766 166.000,142.060 165.640,142.200 165.200 C 142.417 164.516,142.580 164.468,143.327 164.866 C 144.124 165.290,144.151 165.271,143.636 164.647 C 143.326 164.271,142.800 164.068,142.468 164.195 C 142.136 164.323,141.744 164.232,141.597 163.995 C 141.418 163.705,141.160 163.766,140.819 164.177 M140.163 168.648 C 140.343 169.118,140.092 169.194,138.894 169.033 C 138.072 168.922,137.760 168.933,138.200 169.059 C 138.640 169.184,139.180 169.431,139.400 169.608 C 139.621 169.786,140.223 169.588,140.744 169.165 C 141.264 168.744,141.624 168.386,141.544 168.369 C 140.146 168.073,139.957 168.111,140.163 168.648 M170.800 169.858 C 171.570 170.475,172.695 171.466,173.300 172.060 C 173.905 172.653,174.400 173.009,174.400 172.852 C 174.400 172.401,171.507 169.783,170.400 169.232 C 169.708 168.888,169.831 169.081,170.800 169.858 M135.429 169.829 C 135.083 170.174,134.805 170.669,134.812 170.929 C 134.819 171.188,135.005 171.091,135.225 170.713 C 135.445 170.335,135.935 169.845,136.313 169.625 C 136.691 169.405,136.788 169.219,136.529 169.212 C 136.269 169.205,135.774 169.483,135.429 169.829 M136.630 170.448 C 136.037 170.915,135.640 171.527,135.748 171.809 C 135.856 172.091,135.597 172.412,135.172 172.523 C 134.728 172.639,134.400 173.071,134.400 173.539 C 134.400 174.512,135.028 175.002,135.434 174.345 C 135.615 174.052,135.550 173.984,135.262 174.162 C 134.985 174.333,134.800 174.187,134.800 173.800 C 134.800 173.444,134.971 173.258,135.180 173.388 C 135.589 173.640,136.551 172.162,136.582 171.234 C 136.592 170.923,136.850 170.585,137.156 170.483 C 137.515 170.362,137.604 170.470,137.407 170.788 C 137.175 171.164,137.290 171.180,137.899 170.854 C 138.337 170.620,138.818 170.551,138.969 170.702 C 139.119 170.852,139.124 170.666,138.978 170.288 C 138.627 169.373,137.936 169.420,136.630 170.448 M130.897 175.217 C 129.672 175.704,128.900 177.427,129.486 178.365 C 129.756 178.798,129.788 179.290,129.569 179.636 C 129.267 180.113,129.207 180.107,129.181 179.600 C 129.163 179.252,128.997 179.378,128.788 179.900 C 128.529 180.543,128.095 180.800,127.267 180.800 C 125.185 180.800,122.523 184.484,123.559 185.930 C 123.706 186.135,122.184 187.331,120.798 188.100 C 120.011 188.536,119.301 189.398,118.912 190.389 C 118.568 191.263,118.135 191.883,117.948 191.768 C 117.762 191.653,117.728 191.867,117.873 192.245 C 118.051 192.711,117.985 192.838,117.668 192.642 C 117.387 192.468,117.200 192.602,117.200 192.976 C 117.200 193.319,117.335 193.599,117.500 193.597 C 118.098 193.592,120.000 192.133,119.743 191.876 C 119.598 191.731,119.221 191.925,118.905 192.306 C 118.589 192.688,118.736 192.280,119.232 191.400 C 120.324 189.459,121.196 188.400,121.702 188.400 C 121.910 188.400,122.712 187.768,123.485 186.995 C 124.257 186.223,124.607 185.699,124.262 185.832 C 123.730 186.036,123.691 185.878,124.004 184.787 C 124.624 182.625,125.490 181.658,127.097 181.337 C 129.047 180.947,129.181 180.915,129.300 180.819 C 129.355 180.775,129.731 180.676,130.137 180.599 C 131.124 180.413,131.313 180.180,131.440 178.993 C 131.508 178.349,131.390 178.083,131.112 178.255 C 130.843 178.421,130.792 178.337,130.978 178.035 C 131.144 177.767,131.376 177.642,131.493 177.759 C 131.609 177.876,132.081 177.708,132.542 177.386 C 133.744 176.544,134.259 176.662,133.183 177.533 C 132.485 178.099,132.425 178.267,132.921 178.267 C 133.275 178.267,133.453 178.086,133.317 177.865 C 133.167 177.624,133.342 177.569,133.755 177.727 C 134.163 177.884,134.342 177.830,134.197 177.595 C 134.063 177.378,134.188 177.197,134.476 177.194 C 134.893 177.189,134.890 177.118,134.457 176.844 C 134.079 176.604,134.049 176.417,134.357 176.226 C 135.037 175.806,134.883 175.245,134.100 175.293 C 133.715 175.317,133.040 175.229,132.600 175.098 C 132.160 174.966,131.394 175.020,130.897 175.217 M178.075 175.800 C 178.553 176.350,179.123 176.800,179.342 176.800 C 179.561 176.800,179.317 176.350,178.800 175.800 C 178.283 175.250,177.713 174.800,177.533 174.800 C 177.353 174.800,177.597 175.250,178.075 175.800 M132.617 175.627 C 132.763 175.863,132.638 175.998,132.338 175.929 C 131.821 175.810,129.964 177.345,130.033 177.833 C 130.052 177.962,129.962 178.172,129.833 178.300 C 129.705 178.428,129.600 178.225,129.600 177.848 C 129.600 176.460,132.027 174.673,132.617 175.627 M180.027 177.900 C 180.012 178.175,180.360 178.760,180.800 179.200 C 181.240 179.640,181.825 179.988,182.100 179.973 C 182.375 179.958,182.214 179.759,181.742 179.531 C 181.271 179.302,180.698 178.729,180.469 178.258 C 180.241 177.786,180.042 177.625,180.027 177.900 M183.600 180.074 C 183.600 180.145,184.140 180.712,184.800 181.335 C 185.460 181.958,186.000 182.285,186.000 182.061 C 186.000 181.837,185.460 181.270,184.800 180.800 C 184.140 180.330,183.600 180.003,183.600 180.074 M126.933 182.150 C 126.970 182.343,126.750 182.591,126.444 182.702 C 126.061 182.841,125.989 182.733,126.213 182.352 C 126.392 182.048,126.169 182.123,125.719 182.517 C 125.268 182.911,124.900 183.665,124.900 184.192 C 124.900 185.136,124.919 185.132,126.153 183.875 C 126.842 183.174,127.734 182.420,128.134 182.200 C 128.779 181.846,128.748 181.800,127.864 181.800 C 127.316 181.800,126.897 181.958,126.933 182.150 M186.414 184.557 C 186.736 184.863,187.450 185.237,188.000 185.388 C 188.844 185.619,188.796 185.532,187.690 184.831 C 186.187 183.877,185.557 183.742,186.414 184.557 M191.618 187.720 C 191.550 188.944,194.046 191.687,194.664 191.069 C 194.772 190.961,194.484 190.754,194.025 190.608 C 193.566 190.462,192.840 189.681,192.413 188.871 C 191.985 188.062,191.627 187.544,191.618 187.720 M196.964 191.942 C 197.081 192.131,197.366 192.786,197.599 193.398 C 197.832 194.010,198.121 194.413,198.241 194.293 C 198.478 194.056,197.315 191.600,196.966 191.600 C 196.849 191.600,196.848 191.754,196.964 191.942 M198.602 195.203 C 198.739 195.424,199.424 195.883,200.125 196.222 C 201.233 196.758,201.295 196.759,200.600 196.233 C 200.160 195.900,199.583 195.441,199.317 195.214 C 198.700 194.685,198.278 194.679,198.602 195.203 M112.088 197.694 C 111.806 198.034,111.780 198.439,112.017 198.813 C 112.382 199.391,112.607 198.913,112.447 197.900 C 112.421 197.735,112.601 197.600,112.847 197.600 C 113.110 197.600,113.200 197.969,113.067 198.500 C 112.861 199.314,112.889 199.334,113.359 198.706 C 113.645 198.325,114.021 198.145,114.194 198.306 C 114.368 198.468,114.426 198.330,114.323 198.000 C 114.079 197.212,112.650 197.017,112.088 197.694 M204.227 199.846 C 204.602 200.531,205.469 201.401,206.154 201.779 C 207.386 202.459,207.390 202.458,206.483 201.719 C 205.979 201.308,205.112 200.438,204.556 199.786 L 203.545 198.600 204.227 199.846 M108.267 203.067 C 107.735 203.599,108.015 204.085,108.582 203.615 C 108.903 203.349,109.336 203.237,109.546 203.366 C 109.755 203.496,110.348 203.433,110.863 203.226 C 111.682 202.898,111.594 202.848,110.167 202.825 C 109.268 202.811,108.413 202.920,108.267 203.067 M106.356 203.300 C 106.332 203.355,106.263 203.982,106.203 204.694 L 106.094 205.988 106.873 204.998 C 107.619 204.050,107.573 203.200,106.776 203.200 C 106.569 203.200,106.380 203.245,106.356 203.300 M210.035 205.278 C 211.006 206.530,212.010 207.565,212.267 207.578 C 212.523 207.590,212.824 207.825,212.935 208.100 C 213.046 208.375,213.145 208.420,213.156 208.200 C 213.178 207.741,212.006 206.413,209.802 204.400 L 208.269 203.000 210.035 205.278 M105.895 207.073 C 105.794 207.253,105.603 207.940,105.472 208.600 C 105.234 209.794,105.236 209.793,105.837 208.453 C 106.360 207.286,106.408 206.168,105.895 207.073 M100.867 209.158 C 100.281 209.521,100.628 210.648,101.418 210.952 C 101.724 211.069,102.081 210.993,102.211 210.783 C 102.341 210.572,102.262 210.400,102.036 210.400 C 101.810 210.400,101.722 210.148,101.840 209.840 C 102.105 209.148,101.533 208.747,100.867 209.158 M214.800 209.573 C 214.800 209.808,214.935 210.004,215.100 210.010 C 215.265 210.015,216.390 210.927,217.600 212.036 C 220.554 214.745,221.623 215.280,219.281 212.879 C 217.114 210.656,214.800 208.949,214.800 209.573 M100.032 211.924 C 99.998 213.320,100.557 213.372,100.914 212.006 C 101.030 211.562,100.978 211.290,100.797 211.402 C 100.616 211.514,100.377 211.379,100.266 211.102 C 100.154 210.826,100.049 211.196,100.032 211.924 M96.859 214.933 C 97.274 215.383,97.531 215.412,97.961 215.060 C 98.618 214.522,98.781 214.547,99.286 215.266 C 99.585 215.691,99.628 215.678,99.500 215.200 C 99.401 214.833,98.751 214.551,97.828 214.473 C 96.520 214.364,96.391 214.425,96.859 214.933 M222.778 216.007 C 223.340 216.561,224.205 217.530,224.700 218.161 C 225.195 218.792,225.599 219.149,225.599 218.954 C 225.596 218.275,224.008 216.000,223.537 216.000 C 223.276 216.000,222.769 215.775,222.409 215.500 C 222.050 215.225,222.216 215.453,222.778 216.007 M95.592 215.810 C 95.314 216.145,95.197 216.531,95.333 216.667 C 95.624 216.957,96.800 216.063,96.800 215.551 C 96.800 215.000,96.148 215.140,95.592 215.810 M94.473 217.828 C 94.551 218.751,94.833 219.401,95.200 219.500 C 95.678 219.628,95.691 219.585,95.266 219.286 C 94.547 218.781,94.522 218.618,95.060 217.961 C 95.412 217.531,95.383 217.274,94.933 216.859 C 94.425 216.391,94.364 216.520,94.473 217.828 M90.914 220.990 C 89.547 221.585,88.762 223.322,89.518 224.078 C 89.749 224.309,89.837 224.761,89.713 225.082 C 89.530 225.561,89.427 225.570,89.150 225.134 C 88.889 224.721,88.811 224.753,88.806 225.276 C 88.796 226.436,89.686 226.581,90.566 225.562 C 91.024 225.031,91.760 224.597,92.200 224.598 C 92.751 224.599,93.000 224.334,93.000 223.745 C 93.000 223.275,93.450 222.516,94.000 222.058 L 95.000 221.227 94.074 221.213 C 93.564 221.206,92.799 221.386,92.374 221.614 C 91.855 221.892,91.600 221.894,91.600 221.622 C 91.600 221.398,92.095 221.106,92.700 220.973 C 94.516 220.572,94.660 220.464,93.400 220.447 C 92.740 220.438,91.621 220.683,90.914 220.990 M228.567 221.100 C 228.732 221.265,229.000 221.400,229.162 221.400 C 229.611 221.400,230.800 222.686,230.800 223.171 C 230.800 223.407,230.991 223.600,231.224 223.600 C 231.722 223.600,231.396 222.950,230.271 221.700 C 229.825 221.205,229.192 220.800,228.864 220.800 C 228.535 220.800,228.402 220.935,228.567 221.100 M90.852 222.137 C 90.607 222.432,90.500 222.766,90.613 222.880 C 90.727 222.993,90.545 223.314,90.210 223.592 C 89.756 223.968,89.600 223.976,89.600 223.623 C 89.600 222.863,90.389 221.600,90.863 221.600 C 91.171 221.600,91.168 221.757,90.852 222.137 M92.667 223.763 C 92.667 224.040,92.427 224.267,92.133 224.267 C 91.840 224.267,91.600 224.106,91.600 223.910 C 91.600 223.713,91.392 223.681,91.138 223.838 C 90.884 223.995,90.781 223.955,90.908 223.749 C 91.260 223.180,92.667 223.191,92.667 223.763 M84.810 233.190 C 84.376 233.624,83.926 234.434,83.810 234.990 C 83.695 235.545,83.510 236.436,83.400 236.968 C 83.172 238.077,83.507 239.200,84.066 239.200 C 84.276 239.200,84.344 239.032,84.217 238.828 C 84.091 238.623,84.170 238.342,84.393 238.204 C 84.617 238.066,84.794 237.738,84.787 237.476 C 84.780 237.214,84.497 237.360,84.158 237.800 C 83.582 238.548,83.560 238.497,83.824 237.000 C 84.213 234.800,85.075 233.226,86.121 232.805 C 86.808 232.528,86.847 232.445,86.300 232.425 C 85.915 232.411,85.245 232.755,84.810 233.190 M87.883 233.335 C 88.031 233.574,87.862 233.633,87.466 233.481 C 87.100 233.340,86.800 233.410,86.800 233.636 C 86.800 233.862,86.640 233.949,86.445 233.828 C 85.921 233.504,85.078 234.691,84.957 235.924 L 84.851 237.000 85.438 235.900 C 85.761 235.295,86.204 234.800,86.422 234.800 C 86.640 234.800,86.525 235.295,86.167 235.900 C 85.665 236.747,85.656 236.832,86.126 236.268 C 86.461 235.865,87.065 235.280,87.468 234.967 C 88.167 234.423,88.164 234.408,87.400 234.624 C 86.914 234.762,87.032 234.600,87.700 234.213 C 88.900 233.516,89.136 232.933,88.218 232.933 C 87.897 232.933,87.747 233.114,87.883 233.335 M247.476 237.857 C 247.328 238.005,247.366 238.323,247.560 238.563 C 247.755 238.803,248.002 239.360,248.111 239.800 C 248.273 240.459,248.314 240.424,248.347 239.600 C 248.393 238.470,247.883 237.450,247.476 237.857 M83.941 239.868 C 83.053 240.104,82.803 241.237,82.853 244.800 C 82.893 247.719,82.903 247.748,83.219 245.861 C 83.398 244.794,83.646 243.821,83.769 243.698 C 83.892 243.574,83.822 243.268,83.613 243.016 C 83.105 242.404,83.561 240.735,84.145 241.069 C 84.395 241.211,84.467 241.181,84.303 241.001 C 84.140 240.821,84.207 240.432,84.452 240.137 C 84.697 239.842,84.831 239.621,84.749 239.646 C 84.667 239.672,84.303 239.772,83.941 239.868 M247.099 241.815 C 246.562 242.534,246.516 242.819,246.899 243.040 C 247.175 243.199,247.265 243.179,247.099 242.997 C 246.934 242.814,247.098 242.334,247.463 241.930 C 247.829 241.526,248.055 241.124,247.964 241.037 C 247.874 240.950,247.485 241.300,247.099 241.815 M245.141 245.253 C 244.339 246.104,243.858 246.800,244.072 246.800 C 244.601 246.800,246.800 244.568,246.800 244.031 C 246.800 243.478,246.851 243.440,245.141 245.253 M240.716 250.347 C 240.048 251.765,240.049 251.779,240.766 250.917 C 241.170 250.431,241.613 250.146,241.750 250.284 C 241.888 250.421,242.000 250.244,242.000 249.890 C 242.000 248.680,241.400 248.894,240.716 250.347 M235.100 254.500 C 234.605 254.995,234.082 255.361,233.938 255.313 C 233.582 255.194,232.654 256.351,232.553 257.040 C 232.461 257.666,233.029 257.800,233.379 257.234 C 233.503 257.033,233.404 256.801,233.159 256.720 C 232.877 256.626,232.950 256.374,233.356 256.036 C 233.816 255.654,234.000 255.637,234.000 255.975 C 234.000 256.240,234.220 256.321,234.500 256.159 C 234.775 256.001,234.564 256.350,234.030 256.935 C 233.497 257.521,233.238 258.000,233.455 258.000 C 234.012 258.000,235.600 256.459,235.600 255.918 C 235.600 255.670,235.708 255.574,235.839 255.706 C 236.113 255.979,234.772 258.400,234.346 258.400 C 234.192 258.400,233.751 258.521,233.367 258.668 C 232.923 258.839,232.764 258.781,232.932 258.510 C 233.077 258.276,232.912 257.975,232.565 257.842 C 231.683 257.504,231.515 257.539,231.800 258.000 C 231.936 258.220,231.812 258.405,231.524 258.412 C 231.170 258.420,231.208 258.546,231.640 258.798 C 232.576 259.345,235.396 259.008,235.418 258.346 C 235.428 258.046,235.667 257.849,235.948 257.910 C 236.229 257.970,236.347 257.838,236.209 257.615 C 236.072 257.393,236.135 256.576,236.349 255.801 C 236.578 254.969,236.587 254.485,236.369 254.619 C 236.166 254.745,236.000 254.670,236.000 254.453 C 236.000 254.236,236.315 253.976,236.700 253.876 C 237.367 253.702,237.367 253.691,236.700 253.646 C 236.315 253.621,235.595 254.005,235.100 254.500 M230.955 259.906 C 230.702 260.073,230.631 260.541,230.791 260.989 C 231.041 261.688,231.096 261.654,231.281 260.689 C 231.395 260.090,231.469 259.603,231.445 259.606 C 231.420 259.609,231.200 259.744,230.955 259.906 M230.073 263.400 C 229.822 263.950,229.433 264.400,229.209 264.400 C 228.984 264.400,228.806 264.625,228.813 264.900 C 228.827 265.467,230.800 263.360,230.800 262.778 C 230.800 262.140,230.549 262.354,230.073 263.400 M82.941 269.481 C 82.980 272.428,83.169 274.130,83.493 274.454 C 83.884 274.844,83.904 274.661,83.592 273.573 C 83.330 272.658,83.333 272.156,83.602 272.066 C 83.824 271.992,83.875 271.722,83.716 271.466 C 83.558 271.210,83.305 269.650,83.155 268.000 C 82.910 265.297,82.888 265.443,82.941 269.481 M219.281 272.418 C 218.972 272.913,218.946 273.200,219.209 273.200 C 219.438 273.200,219.732 272.922,219.862 272.583 C 220.222 271.645,219.833 271.534,219.281 272.418 M83.433 275.857 C 83.295 276.219,83.275 276.609,83.391 276.724 C 83.506 276.839,83.600 276.701,83.600 276.418 C 83.600 276.005,83.719 276.001,84.200 276.400 C 84.615 276.744,84.800 276.759,84.800 276.449 C 84.800 276.202,84.609 276.000,84.376 276.000 C 84.143 276.000,84.064 275.820,84.200 275.600 C 84.336 275.380,84.276 275.200,84.066 275.200 C 83.857 275.200,83.572 275.496,83.433 275.857 M215.809 275.991 C 215.415 276.425,214.950 276.692,214.774 276.584 C 214.599 276.476,214.342 276.570,214.204 276.793 C 213.701 277.607,215.293 277.175,216.023 276.300 C 216.436 275.805,216.779 275.606,216.787 275.857 C 216.794 276.109,217.067 276.417,217.394 276.542 C 217.891 276.733,217.908 276.642,217.498 275.985 C 216.886 275.006,216.699 275.006,215.809 275.991 M213.680 278.480 C 213.034 279.126,213.076 279.467,213.800 279.467 C 214.130 279.467,214.400 279.137,214.400 278.733 C 214.400 277.870,214.319 277.841,213.680 278.480 M211.600 281.643 C 211.600 281.886,211.360 281.993,211.067 281.881 C 210.773 281.768,210.533 281.929,210.533 282.238 C 210.533 282.902,211.042 282.979,211.417 282.373 C 211.562 282.138,211.958 282.052,212.297 282.182 C 212.808 282.378,212.827 282.314,212.408 281.809 C 211.807 281.086,211.600 281.043,211.600 281.643 M207.667 287.000 C 207.768 287.610,207.610 287.768,207.000 287.667 C 206.353 287.559,206.296 287.632,206.703 288.049 C 207.113 288.470,207.331 288.440,207.886 287.886 C 208.440 287.331,208.470 287.113,208.049 286.703 C 207.632 286.296,207.559 286.353,207.667 287.000 M90.157 289.265 C 90.181 290.071,90.298 290.701,90.419 290.665 C 90.797 290.553,93.202 292.729,92.894 292.903 C 92.732 292.994,92.840 293.008,93.133 292.934 C 93.426 292.860,93.915 292.800,94.220 292.800 C 94.562 292.800,94.682 292.557,94.532 292.166 C 94.336 291.656,94.223 291.637,93.950 292.066 C 93.700 292.461,93.609 292.392,93.600 291.800 C 93.592 291.258,93.487 291.159,93.274 291.494 C 92.833 292.188,91.065 290.929,91.369 290.138 C 91.510 289.768,91.423 289.662,91.127 289.845 C 90.815 290.038,90.750 289.907,90.927 289.445 C 91.072 289.067,91.027 288.860,90.826 288.984 C 90.625 289.108,90.383 288.893,90.288 288.505 C 90.193 288.117,90.134 288.459,90.157 289.265 M200.753 293.135 C 200.727 293.281,200.724 293.529,200.748 293.686 C 200.771 293.843,200.523 293.868,200.195 293.743 C 199.868 293.617,199.600 293.714,199.600 293.957 C 199.600 294.201,199.960 294.400,200.400 294.400 C 200.840 294.400,201.200 294.220,201.200 294.000 C 201.200 293.780,201.335 293.645,201.500 293.700 C 201.665 293.755,201.890 293.637,202.000 293.438 C 202.110 293.239,201.885 293.030,201.500 292.974 C 201.115 292.917,200.779 292.990,200.753 293.135 M94.667 295.467 C 94.102 296.032,94.415 297.980,95.133 298.364 C 95.692 298.663,95.867 298.615,95.867 298.161 C 95.867 297.829,95.631 297.656,95.333 297.770 C 95.040 297.883,94.800 297.801,94.800 297.587 C 94.800 297.374,95.002 297.200,95.249 297.200 C 95.565 297.200,95.555 297.028,95.215 296.618 C 94.949 296.297,94.847 295.847,94.989 295.618 C 95.278 295.151,95.077 295.057,94.667 295.467 M196.000 298.000 C 196.000 298.220,196.270 298.400,196.600 298.400 C 196.930 298.400,197.200 298.220,197.200 298.000 C 197.200 297.780,196.930 297.600,196.600 297.600 C 196.270 297.600,196.000 297.780,196.000 298.000 M98.067 299.650 C 98.360 299.836,98.915 299.991,99.300 299.994 C 99.832 299.999,100.000 300.336,100.000 301.400 C 100.000 302.364,100.183 302.800,100.587 302.800 C 100.971 302.800,101.086 302.569,100.919 302.134 C 100.729 301.637,100.808 301.553,101.232 301.803 C 101.544 301.987,101.457 301.747,101.038 301.269 C 100.574 300.739,100.466 300.400,100.762 300.400 C 101.029 300.400,101.134 300.217,100.996 299.993 C 100.858 299.770,100.577 299.691,100.372 299.817 C 100.168 299.944,100.000 299.902,99.999 299.724 C 99.999 299.546,99.444 299.380,98.766 299.356 C 97.952 299.326,97.715 299.426,98.067 299.650 M190.576 303.020 C 191.284 303.548,191.152 303.795,190.251 303.631 C 190.059 303.596,190.014 303.859,190.151 304.216 C 190.288 304.573,190.400 304.951,190.400 305.056 C 190.400 305.161,190.583 305.134,190.807 304.996 C 191.030 304.858,191.109 304.577,190.983 304.372 C 190.856 304.168,190.943 304.000,191.176 304.000 C 191.989 304.000,191.593 302.892,190.700 302.667 C 189.831 302.448,189.827 302.460,190.576 303.020 M100.578 304.035 C 100.431 304.274,100.521 304.679,100.779 304.935 C 101.136 305.290,101.177 305.210,100.949 304.600 C 100.682 303.885,100.723 303.859,101.334 304.357 C 101.932 304.843,101.987 304.830,101.766 304.257 C 101.476 303.501,100.967 303.406,100.578 304.035 M102.400 304.757 C 102.400 305.245,103.577 305.661,104.079 305.351 C 104.334 305.194,104.283 304.972,103.943 304.756 C 103.232 304.306,102.400 304.306,102.400 304.757 M188.300 304.687 C 187.695 304.778,187.200 305.000,187.200 305.180 C 187.200 305.677,189.743 305.371,189.916 304.853 C 189.999 304.604,189.917 304.427,189.733 304.460 C 189.550 304.493,188.905 304.595,188.300 304.687 M184.950 307.700 C 185.074 308.085,184.990 308.400,184.764 308.400 C 184.538 308.400,184.469 308.588,184.611 308.818 C 184.939 309.348,184.035 310.469,183.531 310.157 C 183.006 309.833,180.760 310.811,181.029 311.246 C 181.423 311.884,182.908 311.659,182.655 311.000 C 182.391 310.311,182.845 310.205,183.453 310.813 C 183.966 311.326,185.292 310.866,185.074 310.251 C 184.987 310.003,185.053 309.425,185.222 308.967 C 185.392 308.507,185.349 307.879,185.127 307.567 C 184.807 307.116,184.770 307.143,184.950 307.700 M106.800 308.220 C 106.800 309.369,108.102 310.774,108.814 310.393 C 109.246 310.161,109.600 309.882,109.600 309.772 C 109.600 309.662,109.195 309.780,108.700 310.035 C 107.992 310.399,107.898 310.394,108.261 310.008 C 108.611 309.636,108.566 309.336,108.072 308.759 C 107.449 308.032,106.800 307.756,106.800 308.220 M109.400 310.644 C 108.616 311.250,108.620 311.260,109.569 311.131 C 110.101 311.059,110.611 310.775,110.702 310.500 C 110.923 309.829,110.376 309.889,109.400 310.644 M117.491 311.842 C 117.331 312.002,117.221 312.778,117.246 313.567 C 117.272 314.355,117.377 314.675,117.480 314.279 C 117.638 313.670,117.767 313.639,118.310 314.079 C 118.841 314.509,118.898 314.507,118.634 314.069 C 118.458 313.776,118.195 313.090,118.048 312.544 C 117.902 311.998,117.652 311.682,117.491 311.842 M120.800 316.450 C 120.800 316.895,121.805 317.334,122.374 317.138 C 122.594 317.062,122.330 316.792,121.787 316.538 C 121.235 316.279,120.800 316.241,120.800 316.450 M171.054 316.602 C 170.915 316.965,171.056 317.200,171.413 317.200 C 172.060 317.200,172.207 316.575,171.642 316.226 C 171.445 316.104,171.181 316.274,171.054 316.602 M135.239 318.460 C 134.655 320.135,134.685 320.302,135.402 319.376 C 135.962 318.656,135.975 318.683,135.587 319.765 C 135.292 320.591,135.298 321.057,135.609 321.365 C 135.926 321.680,135.965 321.579,135.749 321.000 C 135.484 320.291,135.527 320.262,136.121 320.745 C 136.489 321.045,136.678 321.474,136.540 321.697 C 136.400 321.924,136.534 322.015,136.844 321.902 C 137.150 321.791,137.361 321.516,137.314 321.291 C 137.265 321.062,137.599 320.979,138.073 321.103 C 138.896 321.318,138.898 321.339,138.159 321.903 C 137.382 322.497,137.993 322.420,139.966 321.677 C 140.325 321.542,140.426 321.635,140.242 321.932 C 139.929 322.439,142.590 322.609,143.767 322.157 C 145.073 321.656,144.484 320.832,143.103 321.228 C 141.174 321.781,140.435 321.667,141.600 320.995 C 142.589 320.424,142.585 320.420,141.200 320.643 C 140.093 320.820,139.925 320.771,140.400 320.407 C 140.895 320.028,140.851 319.989,140.146 320.186 C 139.112 320.475,136.645 318.582,136.965 317.746 C 137.096 317.405,136.894 317.200,136.427 317.200 C 135.947 317.200,135.521 317.652,135.239 318.460 M149.706 321.850 C 150.755 322.219,151.730 322.403,151.873 322.260 C 152.315 321.819,151.814 321.612,149.768 321.391 L 147.800 321.179 149.706 321.850 " stroke="none" fill="#989824" fill-rule="evenodd"></path><path id="path3" d="M159.800 159.946 C 162.750 162.830,163.215 162.967,162.254 160.668 C 161.607 159.120,160.406 158.173,158.349 157.590 C 157.072 157.229,157.150 157.355,159.800 159.946 M165.230 164.519 C 166.017 165.289,167.115 166.458,167.669 167.118 C 168.224 167.777,169.290 168.633,170.039 169.020 C 171.773 169.917,173.972 171.948,174.410 173.058 C 174.616 173.580,175.423 174.140,176.474 174.489 C 177.702 174.897,178.576 175.573,179.505 176.831 C 181.508 179.546,181.505 179.544,183.138 179.983 C 184.891 180.455,185.777 181.315,186.157 182.912 C 186.441 184.107,188.458 185.596,189.796 185.599 C 190.533 185.600,190.518 185.531,189.596 184.669 C 189.048 184.156,187.934 182.996,187.119 182.089 C 186.305 181.182,185.113 180.169,184.471 179.837 C 183.829 179.505,182.448 178.281,181.401 177.117 C 180.338 175.934,178.594 174.559,177.449 174.000 C 175.997 173.291,175.202 172.592,174.721 171.600 C 173.737 169.570,173.368 169.254,171.411 168.761 C 169.442 168.265,168.539 167.466,168.336 166.040 C 168.177 164.919,166.705 163.745,165.000 163.378 L 163.800 163.120 165.230 164.519 M191.600 186.767 C 191.600 188.185,193.255 190.335,194.832 190.966 C 197.080 191.866,197.086 191.689,194.887 189.361 C 192.535 186.871,191.600 186.133,191.600 186.767 M197.878 193.039 C 198.748 194.920,198.978 195.172,200.900 196.348 C 202.552 197.358,202.668 197.275,201.838 195.680 C 201.216 194.484,199.983 193.276,198.278 192.192 L 197.155 191.479 197.878 193.039 M203.200 197.833 C 203.200 198.387,206.046 201.463,207.169 202.123 C 208.688 203.015,208.736 202.491,207.330 200.365 C 206.119 198.536,203.200 196.746,203.200 197.833 M211.200 205.742 C 213.810 208.401,214.504 208.583,213.587 206.369 C 213.018 204.996,211.466 203.776,209.776 203.373 C 208.707 203.118,208.836 203.333,211.200 205.742 M215.800 209.691 C 216.460 210.191,217.720 211.329,218.600 212.221 C 220.347 213.991,222.600 215.711,223.701 216.117 C 224.086 216.259,224.701 217.005,225.068 217.774 C 225.545 218.773,226.325 219.461,227.804 220.184 C 230.124 221.320,230.951 222.094,231.564 223.706 C 231.795 224.313,232.483 225.011,233.092 225.257 C 236.063 226.457,236.854 227.059,237.668 228.741 C 238.463 230.383,240.593 231.881,241.620 231.521 C 242.239 231.304,236.773 226.035,234.836 224.981 C 233.750 224.390,232.508 223.275,231.911 222.354 C 231.240 221.318,230.129 220.374,228.759 219.677 C 227.219 218.893,226.362 218.116,225.608 216.822 C 224.828 215.481,224.232 214.956,223.186 214.688 C 221.481 214.250,220.556 213.450,219.722 211.691 C 218.972 210.112,217.941 209.375,216.000 209.030 L 214.600 208.781 215.800 209.691 M242.800 232.212 C 242.800 233.377,244.957 235.804,246.900 236.827 C 248.891 237.875,248.796 237.571,246.309 234.942 C 244.350 232.870,242.800 231.664,242.800 232.212 M234.918 257.048 C 234.434 257.792,234.170 258.400,234.332 258.400 C 234.666 258.400,236.154 256.012,235.939 255.820 C 235.863 255.752,235.403 256.305,234.918 257.048 M224.813 266.800 C 224.521 267.533,224.588 268.772,224.903 268.457 C 225.108 268.252,225.189 267.751,225.084 267.342 C 224.979 266.934,224.857 266.690,224.813 266.800 M223.493 270.000 C 223.116 270.440,222.908 270.800,223.030 270.800 C 223.548 270.800,224.800 269.941,224.800 269.586 C 224.800 268.960,224.228 269.142,223.493 270.000 M220.001 270.900 C 220.000 271.304,221.270 271.270,221.933 270.850 C 222.285 270.626,222.048 270.526,221.234 270.556 C 220.556 270.580,220.001 270.735,220.001 270.900 M218.694 275.303 L 217.988 276.600 218.794 275.656 C 219.480 274.852,219.846 273.994,219.500 274.003 C 219.445 274.004,219.082 274.589,218.694 275.303 M85.263 278.245 C 86.048 279.327,86.974 280.176,87.336 280.145 C 87.697 280.115,87.904 280.231,87.798 280.403 C 87.692 280.575,87.862 280.815,88.176 280.935 C 88.555 281.081,88.728 280.902,88.690 280.402 C 88.659 279.988,88.293 279.561,87.877 279.452 C 87.403 279.328,87.233 279.071,87.422 278.765 C 87.608 278.464,87.557 278.379,87.289 278.545 C 87.050 278.693,86.617 278.479,86.327 278.070 C 86.037 277.661,85.360 277.093,84.823 276.808 C 83.936 276.337,83.977 276.470,85.263 278.245 M213.600 280.224 C 213.600 280.567,213.422 280.737,213.205 280.603 C 212.987 280.468,212.905 280.607,213.021 280.911 C 213.144 281.230,212.846 281.649,212.317 281.904 C 211.812 282.147,211.625 282.358,211.900 282.373 C 212.580 282.410,214.000 280.940,214.000 280.200 C 214.000 279.870,213.910 279.600,213.800 279.600 C 213.690 279.600,213.600 279.881,213.600 280.224 M90.400 290.540 C 90.400 291.461,93.736 293.597,94.297 293.037 C 94.427 292.906,94.240 292.800,93.881 292.800 C 93.522 292.800,92.592 292.241,91.814 291.559 C 91.036 290.876,90.400 290.418,90.400 290.540 M175.600 313.270 C 174.830 314.117,174.125 314.897,174.033 315.005 C 173.942 315.112,174.167 315.200,174.533 315.200 C 174.900 315.200,175.160 315.065,175.111 314.900 C 175.062 314.735,175.602 314.029,176.311 313.331 C 177.865 311.800,178.045 312.092,176.525 313.678 C 175.934 314.295,175.636 314.800,175.863 314.800 C 176.344 314.800,177.316 313.752,177.918 312.583 C 178.668 311.129,177.134 311.583,175.600 313.270 M172.933 316.258 C 172.933 316.618,173.138 316.647,173.667 316.364 C 174.070 316.148,174.400 315.899,174.400 315.811 C 174.400 315.722,174.070 315.675,173.667 315.705 C 173.263 315.735,172.933 315.984,172.933 316.258 M155.094 320.503 L 154.388 321.800 155.194 320.856 C 155.880 320.052,156.246 319.194,155.900 319.203 C 155.845 319.204,155.482 319.789,155.094 320.503 M145.312 322.295 C 146.364 322.377,147.984 322.376,148.912 322.292 C 149.840 322.208,148.980 322.141,147.000 322.142 C 145.020 322.143,144.260 322.212,145.312 322.295 " stroke="none" fill="#503424" fill-rule="evenodd"></path><path id="path4" d="M146.996 158.407 C 146.858 158.630,146.579 158.711,146.377 158.586 C 146.175 158.461,146.122 158.653,146.260 159.013 C 146.442 159.486,146.594 159.534,146.808 159.186 C 146.972 158.922,147.352 158.550,147.653 158.359 C 148.016 158.129,148.039 158.010,147.724 158.006 C 147.462 158.003,147.134 158.183,146.996 158.407 M160.486 158.424 C 160.863 158.644,161.448 159.218,161.786 159.701 C 162.124 160.183,162.400 160.358,162.400 160.089 C 162.400 159.444,160.936 157.997,160.300 158.012 C 160.016 158.019,160.096 158.197,160.486 158.424 M165.992 163.646 C 166.537 163.864,167.266 164.258,167.611 164.521 C 167.957 164.784,167.815 164.595,167.297 164.100 C 166.779 163.605,166.050 163.211,165.678 163.225 C 165.227 163.242,165.332 163.383,165.992 163.646 M140.000 167.400 C 140.000 167.730,140.180 168.000,140.400 168.000 C 140.620 168.000,140.800 167.730,140.800 167.400 C 140.800 167.070,140.620 166.800,140.400 166.800 C 140.180 166.800,140.000 167.070,140.000 167.400 M135.365 171.011 C 134.773 171.787,134.390 172.524,134.515 172.648 C 134.639 172.773,135.024 172.327,135.370 171.657 C 135.717 170.988,136.315 170.256,136.700 170.032 C 137.085 169.808,137.184 169.619,136.920 169.612 C 136.657 169.605,135.956 170.235,135.365 171.011 M174.400 171.057 C 174.400 172.168,177.666 174.867,178.274 174.259 C 178.384 174.149,177.934 173.779,177.272 173.437 C 176.611 173.096,175.695 172.338,175.235 171.754 C 174.776 171.170,174.400 170.856,174.400 171.057 M180.352 175.838 C 181.349 177.355,184.227 180.000,184.879 180.000 C 185.141 180.000,184.735 179.543,183.978 178.985 C 183.220 178.427,181.911 177.212,181.069 176.285 C 179.934 175.036,179.749 174.921,180.352 175.838 M187.622 182.675 C 189.222 184.387,190.555 185.576,190.705 185.427 C 190.913 185.221,187.062 181.200,186.657 181.200 C 186.429 181.200,186.863 181.864,187.622 182.675 M193.091 187.506 C 193.801 188.113,194.938 189.237,195.617 190.005 L 196.852 191.400 196.126 190.061 C 195.426 188.770,192.846 186.399,192.142 186.401 C 191.954 186.401,192.381 186.899,193.091 187.506 M120.335 187.410 C 119.665 187.774,119.006 188.694,118.556 189.894 C 118.163 190.942,117.652 191.932,117.421 192.094 C 117.143 192.288,117.167 192.390,117.492 192.394 C 117.763 192.397,118.393 191.546,118.892 190.501 C 119.526 189.176,120.283 188.333,121.400 187.708 C 122.507 187.089,122.754 186.816,122.200 186.823 C 121.760 186.828,120.921 187.092,120.335 187.410 M121.609 188.521 C 120.356 189.145,118.848 191.600,119.717 191.600 C 120.042 191.600,120.630 191.105,121.024 190.500 C 121.418 189.895,122.023 189.190,122.369 188.933 C 123.284 188.253,122.738 187.958,121.609 188.521 M199.545 193.025 C 200.285 193.632,201.229 194.684,201.643 195.364 C 202.058 196.044,202.397 196.420,202.397 196.200 C 202.397 195.309,200.828 193.355,199.555 192.661 L 198.200 191.922 199.545 193.025 M207.047 200.000 C 208.190 201.726,208.525 202.008,208.117 200.900 C 207.698 199.761,206.735 198.400,206.348 198.400 C 206.151 198.400,206.465 199.120,207.047 200.000 M212.358 204.760 C 213.041 205.399,213.600 206.149,213.600 206.427 C 213.600 206.706,213.705 206.829,213.832 206.701 C 214.138 206.395,213.240 204.731,212.435 204.113 C 211.191 203.158,211.137 203.620,212.358 204.760 M218.115 209.700 C 218.482 209.975,219.070 210.560,219.421 211.000 C 219.772 211.440,219.929 211.530,219.769 211.200 C 219.305 210.241,218.312 209.200,217.862 209.200 C 217.634 209.200,217.748 209.425,218.115 209.700 M225.500 216.570 C 226.202 217.803,227.215 218.881,228.210 219.453 C 230.468 220.749,230.928 220.614,228.881 219.256 C 227.935 218.629,226.903 217.774,226.586 217.358 C 224.774 214.970,224.461 214.744,225.500 216.570 M231.328 221.400 C 232.147 223.027,233.367 224.263,234.912 225.034 L 236.200 225.677 234.716 224.423 C 233.900 223.733,232.667 222.500,231.977 221.684 C 230.819 220.313,230.769 220.291,231.328 221.400 M239.588 228.945 C 241.012 230.405,242.239 231.600,242.314 231.600 C 242.712 231.600,240.126 228.416,239.723 228.409 C 239.460 228.404,239.010 228.074,238.723 227.676 C 238.435 227.277,237.930 226.802,237.600 226.620 C 237.270 226.438,238.165 227.484,239.588 228.945 M245.785 234.337 C 246.877 235.472,247.816 236.400,247.872 236.400 C 248.170 236.400,247.361 234.929,246.825 234.494 C 244.431 232.554,244.009 232.491,245.785 234.337 M85.903 233.700 C 85.385 234.195,85.240 234.400,85.580 234.156 C 85.921 233.912,86.560 233.512,87.000 233.268 C 87.440 233.024,87.585 232.819,87.322 232.812 C 87.060 232.805,86.421 233.205,85.903 233.700 M248.000 240.884 C 248.000 241.224,247.732 241.724,247.404 241.996 C 247.077 242.268,246.925 242.678,247.066 242.907 C 247.219 243.154,247.129 243.203,246.847 243.029 C 246.263 242.668,243.020 245.893,242.955 246.900 C 242.788 249.466,247.176 245.840,247.735 242.951 C 247.815 242.538,248.019 241.877,248.189 241.483 C 248.360 241.088,248.387 240.653,248.249 240.516 C 248.112 240.379,248.000 240.545,248.000 240.884 M246.800 244.031 C 246.800 244.568,244.601 246.800,244.072 246.800 C 243.858 246.800,244.339 246.104,245.141 245.253 C 246.851 243.440,246.800 243.478,246.800 244.031 M242.053 248.358 C 241.663 248.606,241.619 248.904,241.897 249.402 C 242.239 250.013,242.313 249.969,242.488 249.050 C 242.599 248.472,242.669 248.003,242.645 248.006 C 242.620 248.009,242.354 248.168,242.053 248.358 M241.200 250.393 C 241.200 250.635,240.300 251.393,239.200 252.076 C 236.817 253.558,236.856 253.457,238.629 253.524 C 240.738 253.603,243.004 251.068,241.600 250.200 C 241.380 250.064,241.200 250.151,241.200 250.393 M229.881 264.239 C 229.486 264.768,229.308 265.200,229.485 265.200 C 229.834 265.200,230.938 263.601,230.728 263.400 C 230.657 263.333,230.277 263.711,229.881 264.239 M83.514 276.620 C 82.422 277.712,85.155 282.000,86.942 282.000 C 87.436 282.000,88.092 282.225,88.401 282.500 C 88.873 282.921,88.883 282.896,88.464 282.339 C 88.066 281.809,88.069 281.643,88.483 281.503 C 88.783 281.402,88.461 281.049,87.719 280.664 C 87.014 280.298,85.881 279.189,85.200 278.199 C 83.895 276.304,83.861 276.272,83.514 276.620 M84.628 278.600 C 85.005 280.189,84.481 279.678,83.995 277.981 C 83.775 277.215,83.768 276.812,83.979 277.027 C 84.179 277.232,84.471 277.940,84.628 278.600 M88.806 288.700 C 88.811 289.501,88.909 289.647,89.169 289.236 C 89.365 288.926,89.433 288.431,89.320 288.136 C 88.996 287.290,88.799 287.506,88.806 288.700 M89.629 289.600 C 89.607 289.930,89.485 290.588,89.358 291.063 C 89.073 292.124,90.560 293.778,91.482 293.424 C 91.823 293.293,92.310 293.359,92.564 293.570 C 92.851 293.808,93.250 293.813,93.613 293.583 C 94.082 293.287,94.031 293.211,93.358 293.206 C 92.273 293.198,90.414 291.472,89.995 290.083 C 89.816 289.487,89.651 289.270,89.629 289.600 M90.770 292.100 C 91.303 292.705,91.541 293.200,91.298 293.200 C 90.643 293.200,89.600 292.036,89.600 291.305 C 89.600 290.954,89.645 290.742,89.700 290.833 C 89.755 290.925,90.236 291.495,90.770 292.100 M177.641 313.021 C 177.180 313.802,176.304 314.615,175.693 314.827 C 175.083 315.040,174.349 315.590,174.062 316.049 C 173.631 316.739,173.633 316.826,174.070 316.554 C 174.362 316.372,175.215 316.201,175.967 316.174 C 177.563 316.116,179.200 314.509,179.200 313.001 C 179.200 311.478,178.546 311.486,177.641 313.021 M117.850 315.815 C 117.610 316.440,118.615 317.119,119.084 316.649 C 119.221 316.512,119.039 316.400,118.679 316.400 C 118.262 316.400,118.109 316.183,118.255 315.800 C 118.382 315.470,118.396 315.200,118.286 315.200 C 118.176 315.200,117.979 315.477,117.850 315.815 M155.674 320.598 C 155.348 321.312,155.349 321.645,155.677 321.848 C 155.936 322.008,156.012 321.944,155.858 321.694 C 155.712 321.458,155.866 320.991,156.199 320.658 C 156.533 320.324,156.651 319.955,156.462 319.838 C 156.272 319.721,155.917 320.063,155.674 320.598 M151.200 322.400 C 150.408 322.654,150.367 322.720,151.000 322.720 C 151.440 322.720,152.250 322.576,152.800 322.400 C 153.592 322.146,153.633 322.080,153.000 322.080 C 152.560 322.080,151.750 322.224,151.200 322.400 " stroke="none" fill="#043824" fill-rule="evenodd"></path></g></svg>